HIERARCHY
ROOT Hips
{
	OFFSET 0.00000 0.00000 0.00000
	CHANNELS 6 Xposition Yposition Zposition Zrotation Yrotation Xrotation 
	JOINT LHipJoint
	{
		OFFSET 0 0 0
		CHANNELS 3 Zrotation Yrotation Xrotation
		JOINT LeftHip
		{
			OFFSET 1.88772 -1.62769 0.85636
			CHANNELS 3 Zrotation Yrotation Xrotation
			JOINT LeftKnee
			{
				OFFSET 2.39836 -6.58946 0.00000
				CHANNELS 3 Zrotation Yrotation Xrotation
				JOINT LeftAnkle
				{
					OFFSET 2.78523 -7.65237 0.00000
					CHANNELS 3 Zrotation Yrotation Xrotation
					JOINT LeftToe
					{
						OFFSET 0.19551 -0.53715 1.90694
						CHANNELS 3 Zrotation Yrotation Xrotation
						End Site
						{
							OFFSET 0.00000 -0.00000 0.99735
						}
					}
				}
			}
		}
	}
	JOINT RHipJoint
	{
		OFFSET 0 0 0
		CHANNELS 3 Zrotation Yrotation Xrotation
		JOINT RightHip
		{
			OFFSET -1.74282 -1.62769 0.85636
			CHANNELS 3 Zrotation Yrotation Xrotation
			JOINT RightKnee
			{
				OFFSET -2.36062 -6.48575 0.00000
				CHANNELS 3 Zrotation Yrotation Xrotation
				JOINT RightAnkle
				{
					OFFSET -2.76258 -7.59014 0.00000
					CHANNELS 3 Zrotation Yrotation Xrotation
					JOINT RightToe
					{
						OFFSET -0.19308 -0.53048 2.03952
						CHANNELS 3 Zrotation Yrotation Xrotation
						End Site
						{
							OFFSET -0.00000 -0.00000 1.06031
						}
					}
				}
			}
		}
	}
	JOINT lowerback
	{
		OFFSET 0 0 0
		CHANNELS 3 Zrotation Yrotation Xrotation
		JOINT Chest
		{
			OFFSET -0.08299 2.03160 -0.30721
			CHANNELS 3 Zrotation Yrotation Xrotation
			JOINT Chest2
			{
				OFFSET -0.01030 2.00603 0.13891
				CHANNELS 3 Zrotation Yrotation Xrotation
				JOINT lowerneck
				{
					OFFSET 0 0 0
					CHANNELS 3 Zrotation Yrotation Xrotation
					JOINT Neck
					{
						OFFSET 0.04282 1.69578 0.19991
						CHANNELS 3 Zrotation Yrotation Xrotation
						JOINT Head
						{
							OFFSET -0.08665 1.66622 -0.03785
							CHANNELS 3 Zrotation Yrotation Xrotation
							End Site
							{
								OFFSET -0.03699 1.83329 -0.04094
							}
						}
					}
				}
				JOINT LeftCollar
				{
					OFFSET 0 0 0
					CHANNELS 3 Zrotation Yrotation Xrotation
					JOINT LeftShoulder
					{
						OFFSET 3.04219 1.50803 -0.05347
CHANNELS 3 Zrotation Xrotation Yrotation
						JOINT LeftElbow
						{
OFFSET 0 -5.791990 0.000000
CHANNELS 3 Zrotation Xrotation Yrotation
							JOINT LeftWrist
							{
OFFSET 0 -3.499080 0.000000
CHANNELS 3 Zrotation Xrotation Yrotation
								JOINT lhand
								{
									OFFSET 0 0 0
CHANNELS 3 Zrotation Xrotation Yrotation
									JOINT LFingers
									{
OFFSET 0 -0.593860 0.000000
CHANNELS 3 Zrotation Xrotation Yrotation
										End Site
										{
OFFSET 0 -0.478790 0.000000
										}
									}
								}
								JOINT LThumb
								{
OFFSET 0 0.000000 0.000000
CHANNELS 3 Zrotation Xrotation Yrotation
									End Site
									{
OFFSET 0 -0.486100 0.486100
									}
								}
							}
						}
					}
				}
				JOINT RightCollar
				{
					OFFSET 0 0 0
					CHANNELS 3 Zrotation Yrotation Xrotation
					JOINT RightShoulder
					{
						OFFSET -3.30316 1.18853 0.11175
CHANNELS 3 Zrotation Xrotation Yrotation
						JOINT RightElbow
						{
OFFSET 0 -5.737990 0.000000
CHANNELS 3 Zrotation Xrotation Yrotation
							JOINT RightWrist
							{
OFFSET 0 -3.579160 -0.000000
CHANNELS 3 Zrotation Xrotation Yrotation
								JOINT rhand
								{
									OFFSET 0 0 0
CHANNELS 3 Zrotation Xrotation Yrotation
									JOINT RFingers
									{
OFFSET 0 -0.615580 0.000000
CHANNELS 3 Zrotation Xrotation Yrotation
										End Site
										{
OFFSET 0 -0.496290 0.000000
										}
									}
								}
								JOINT RThumb
								{
OFFSET 0 0.000000 0.000000
CHANNELS 3 Zrotation Xrotation Yrotation
									End Site
									{
OFFSET 0 -0.503870 0.503870
									}
								}
							}
						}
					}
				}
			}
		}
	}
}
MOTION
Frames: 8
Frame Time: 0.008333333333333333
14.815900 17.247800 -16.192200 4.023100 -63.592100 5.292200 0.000000 0.000000 0.000000 -10.512000 -15.958700 -28.577800 2.584500 9.989900 28.944000 0.299900 18.168700 -28.102100 1.027000 6.446500 18.085600 0.000000 0.000000 0.000000 22.066400 8.964500 -7.248800 -1.711000 -8.236200 23.433800 -1.460100 -11.917000 -29.881200 -0.007600 -0.564400 1.550900 -1.205200 1.197800 2.927500 -0.573500 1.505000 -2.805900 -0.019500 0.772100 -4.552100 3.394800 3.074400 -8.048100 -5.591500 3.961600 1.400900 -2.225300 1.841300 2.051500 0.000000 -0.000000 0.000000 11.722400 10.861400 -28.129300 29.247400 -40.239500 10.920200 8.845700 -22.043600 20.722600 0.000000 0.000000 0.000000 -7.125000 0.000000 0.000000 -12.551900 9.422700 -10.591900 0.000000 -0.000000 0.000000 -10.785900 13.219200 42.391200 -24.997500 -36.201400 -8.288400 -19.418700 -0.060600 28.737800 0.000000 0.000000 0.000000 7.125000 0.000000 -0.000000 13.059900 59.677600 -4.728900
15.032917 17.275229 -16.568398 8.098485 -63.099888 1.741892 0.000000 0.000000 0.000000 -11.640352 -15.212925 -29.156150 2.473338 9.789287 28.296891 0.594958 16.133471 -27.879568 0.186349 2.777938 7.661379 0.000000 0.000000 0.000000 20.584196 8.727920 -9.888629 -1.958158 -8.778361 25.104394 -1.403375 -11.402267 -29.089813 -0.098136 -2.016670 5.551838 -2.177672 0.677700 3.247051 -0.163507 0.780458 -2.323870 0.998492 0.446621 -4.245758 3.392415 3.446188 -8.220122 -6.180982 4.466297 1.214911 -2.395988 2.073699 2.067215 0.000000 0.000000 0.000000 9.455391 12.681509 -27.222607 28.263448 -39.357500 10.290409 7.718098 -19.745682 22.225653 0.000000 0.000000 0.000000 -7.125000 0.000000 0.000000 -13.260402 8.050140 -11.595679 0.000000 0.000000 0.000000 -12.359455 12.133164 37.949856 -21.955684 -32.926386 -6.561932 -19.608801 3.257902 30.679319 0.000000 0.000000 0.000000 7.125000 0.000000 0.000000 14.145333 61.630288 -5.790176
15.210375 17.273748 -16.813412 9.908899 -63.560790 -0.273429 0.000000 0.000000 0.000000 -11.586786 -11.471316 -29.477695 2.818414 10.395093 30.265890 0.350469 9.227290 -18.099713 0.057536 -1.547768 -4.257310 0.000000 0.000000 0.000000 20.223495 11.059795 -10.567541 -2.163569 -9.198785 26.419173 -1.328875 -12.443036 -29.445534 -0.258723 -3.272480 9.038253 -2.550745 0.483745 3.247313 0.281281 0.525580 -2.037193 1.685920 0.332245 -3.948335 3.389936 3.625366 -7.584001 -6.283050 4.694355 0.627710 -2.424990 2.200771 1.774008 0.000000 0.000000 0.000000 8.263853 14.336035 -24.358154 24.381814 -35.564651 7.927858 5.365376 -16.629027 20.917210 0.000000 0.000000 0.000000 -7.125000 0.000000 0.000000 -14.738129 9.514309 -12.532491 0.000000 0.000000 0.000000 -12.914073 11.866963 33.426577 -19.833346 -30.441017 -5.446700 -19.499519 2.435850 30.297421 0.000000 0.000000 0.000000 7.125000 0.000000 0.000000 13.999747 61.229805 -5.597575
15.357568 17.289067 -16.870156 9.965207 -65.621688 -1.308837 0.000000 0.000000 0.000000 -10.211780 -8.879787 -26.712676 3.427268 11.356532 33.492039 0.261645 5.902582 -13.614640 0.155829 -2.542783 -7.008383 0.000000 0.000000 0.000000 20.197021 11.364948 -10.492601 -2.243650 -9.355892 26.915196 -1.364824 -10.558059 -28.156266 -0.392569 -4.022135 11.139204 -0.963866 0.578972 3.466888 0.292000 0.730861 -1.951966 0.791312 0.391772 -3.971557 3.106695 3.996007 -8.081555 -6.295719 5.242366 1.345364 -2.345198 2.454859 2.119718 0.000000 0.000000 0.000000 8.923262 15.840508 -20.848561 19.683318 -30.258438 5.371043 5.906189 -15.933684 20.385125 0.000000 0.000000 0.000000 -7.125000 0.000000 0.000000 -14.409696 9.990730 -12.090349 0.000000 0.000000 0.000000 -13.534494 13.650220 32.453713 -20.324216 -31.030939 -5.697537 -19.747002 1.116582 30.778668 0.000000 0.000000 0.000000 7.125000 0.000000 0.000000 14.062149 61.762306 -5.798807
15.522368 17.321016 -16.821464 10.677990 -67.489210 -2.046503 0.000000 0.000000 0.000000 -8.869440 -7.938608 -23.616651 3.738868 11.804457 35.043807 0.226449 6.254741 -13.402973 0.188838 -2.797626 -7.715908 0.000000 0.000000 0.000000 19.426173 12.070037 -11.464568 -2.345456 -9.551152 27.535199 -1.356691 -9.302412 -27.144126 -0.453927 -4.321085 11.981990 -0.214618 0.186088 3.340481 0.331005 0.243960 -2.252314 0.445005 0.129951 -4.197095 1.462724 4.468892 -7.845012 -4.830576 5.946887 0.748284 -1.543950 2.843304 1.786780 0.000000 0.000000 0.000000 9.399448 17.264724 -16.708033 15.210396 -24.437851 3.312822 6.943192 -14.574342 19.674575 0.000000 0.000000 0.000000 -7.125000 0.000000 0.000000 -13.766582 10.603932 -11.339367 0.000000 0.000000 0.000000 -14.224705 14.577333 33.520608 -20.620703 -31.382653 -5.851289 -20.585272 1.120685 29.416126 0.000000 0.000000 0.000000 7.125000 0.000000 0.000000 12.201059 60.627266 -4.688695
15.653368 17.303150 -16.728995 12.841990 -69.155555 -4.568749 0.000000 0.000000 0.000000 -8.520201 -6.326246 -19.918081 3.545418 11.529535 34.087406 0.208162 7.291740 -14.182796 0.213448 -2.967475 -8.188672 0.000000 0.000000 0.000000 18.440792 12.727011 -11.427194 -2.404063 -9.661297 27.886801 -1.017181 -10.541714 -25.579080 -0.024515 -0.974774 2.679850 -1.664275 -0.082376 3.654294 0.443985 -0.188011 -2.098807 1.405622 -0.041432 -4.208368 3.141553 5.209910 -7.044197 -7.155635 6.809280 -0.307775 -2.588796 3.250172 1.513211 0.000000 0.000000 0.000000 10.396688 18.118355 -15.174173 12.340668 -20.313459 2.219164 6.394301 -12.793547 20.320626 0.000000 0.000000 0.000000 -7.125000 0.000000 0.000000 -14.103421 10.016899 -11.808352 0.000000 0.000000 0.000000 -15.165962 16.015666 32.897077 -20.829565 -31.628868 -5.960360 -16.651180 0.065741 28.516662 0.000000 0.000000 0.000000 7.125000 0.000000 0.000000 15.897024 58.826450 -5.459578
15.820376 17.320817 -16.510925 15.620934 -69.964033 -6.852823 0.000000 0.000000 0.000000 -9.314774 -5.706605 -17.074635 2.875358 10.490410 30.579974 0.101329 10.986927 -17.049365 0.146893 -2.450862 -6.754341 0.000000 0.000000 0.000000 16.235727 13.388870 -13.224946 -2.686377 -10.169144 29.526228 -0.964105 -10.294677 -24.948174 -0.002465 0.318904 -0.876279 -2.894073 -0.119906 3.355296 0.202395 -0.303015 -1.950914 1.852381 -0.073824 -3.879075 3.749626 5.425722 -6.165273 -8.166948 6.992513 -1.767043 -3.065441 3.359798 0.972082 0.000000 0.000000 0.000000 11.063947 18.049447 -9.345551 10.459298 -17.454749 1.610065 6.778829 -8.506866 19.311419 0.000000 0.000000 0.000000 -7.125000 0.000000 0.000000 -13.878388 10.970981 -11.329599 0.000000 0.000000 0.000000 -15.369379 16.251675 32.085670 -19.916035 -30.541011 -5.488597 -19.830814 0.301798 29.205665 0.000000 0.000000 0.000000 7.125000 0.000000 0.000000 12.902377 60.237283 -4.843138
16.036226 17.223931 -16.137048 18.425109 -69.228363 -9.778267 0.000000 0.000000 0.000000 -11.765093 -7.723093 -13.573639 2.304677 9.473726 27.288902 0.296742 11.316358 -19.779246 0.873533 -5.958844 -16.665056 0.000000 0.000000 0.000000 13.337133 12.275269 -14.925494 -3.150810 -10.935226 32.061722 -0.975206 -10.045022 -24.828675 -0.146311 2.440921 -6.727114 -4.485191 -0.177682 3.496248 -0.086386 -0.476247 -1.822963 2.458796 -0.126487 -3.812069 3.859258 5.217512 -5.861155 -8.018802 6.683038 -2.224596 -3.058587 3.219454 0.749919 0.000000 0.000000 0.000000 12.183239 14.898856 1.065220 7.705667 -13.074372 0.884625 10.196408 3.964248 19.631852 0.000000 0.000000 0.000000 -7.125000 0.000000 0.000000 -11.690186 10.376942 -9.600017 0.000000 0.000000 0.000000 -15.217402 15.928561 30.762059 -18.772209 -29.134503 -4.919508 -18.947824 -6.020032 28.053560 0.000000 0.000000 0.000000 7.125000 0.000000 0.000000 13.154448 58.893118 -4.516175
